<svg width="28" height="28" viewBox="0 0 28 28" fill="none" xmlns="http://www.w3.org/2000/svg">
<path d="M26.305 24.8908C26.8337 25.4195 26.9457 26.1647 26.5552 26.5553C26.1647 26.9458 25.4195 26.8337 24.8908 26.305L0.95731 2.37155C0.428586 1.84283 0.316553 1.09763 0.707078 0.707107C1.0976 0.316582 1.8428 0.428615 2.37152 0.957339L26.305 24.8908Z" fill="white"/>
<path d="M24.8908 0.957339C25.4195 0.428615 26.1647 0.316583 26.5553 0.707107C26.9458 1.09763 26.8337 1.84283 26.305 2.37155L2.37155 26.305C1.84283 26.8337 1.09763 26.9458 0.707107 26.5553C0.316582 26.1647 0.428615 25.4195 0.957339 24.8908L24.8908 0.957339Z" fill="white"/>
</svg>
