<svg width="27" height="26" viewBox="0 0 27 26" fill="none" xmlns="http://www.w3.org/2000/svg">
<path d="M26 0L26.1025 0.00488281C26.6067 0.0562142 27 0.482323 27 1C27 1.51768 26.6067 1.94379 26.1025 1.99512L26 2H1C0.447715 2 0 1.55228 0 1C0 0.447715 0.447715 0 1 0H26Z" fill="black"/>
<path d="M26 12L26.1025 12.0049C26.6067 12.0562 27 12.4823 27 13C27 13.5177 26.6067 13.9438 26.1025 13.9951L26 14H1C0.447715 14 0 13.5523 0 13C0 12.4477 0.447715 12 1 12H26Z" fill="black"/>
<path d="M26 24C26.5523 24 27 24.4477 27 25C27 25.5523 26.5523 26 26 26H1C0.447715 26 0 25.5523 0 25C0 24.4477 0.447715 24 1 24H26Z" fill="black"/>
</svg>
